<?xml version="1.0" encoding="utf-8"?>
<!-- Generator: Adobe Illustrator 16.0.0, SVG Export Plug-In . SVG Version: 6.00 Build 0)  -->
<!DOCTYPE svg PUBLIC "-//W3C//DTD SVG 1.1//EN" "http://www.w3.org/Graphics/SVG/1.1/DTD/svg11.dtd">
<svg version="1.1" id="Layer_1" xmlns="http://www.w3.org/2000/svg" xmlns:xlink="http://www.w3.org/1999/xlink" x="0px" y="0px"
	 width="212px" height="31.004px" viewBox="0 0 212 31.004" enable-background="new 0 0 212 31.004" xml:space="preserve">
<polyline points="78.324,27.553 89,0.183 82.758,0.183 75.8,19.85 "/>
<polyline points="74.58,23.299 66.316,0.183 60.074,0.183 72.082,30.745 77.078,30.745 "/>
<polygon points="51.187,0.183 43.918,18.814 44.634,21.031 46.71,27.345 53.685,7.629 61.949,30.745 68.191,30.745 56.184,0.183 "/>
<g>
	<polygon points="96.189,17.176 109.442,17.176 109.442,13.119 96.189,13.119 96.189,4.631 111.524,4.631 111.524,0.178 
		90.984,0.178 90.984,30.736 111.925,30.736 111.925,26.283 96.189,26.283 	"/>
	<rect x="144.033" y="0.178" width="5.21" height="30.559"/>
	<path d="M171.59,26.227c-2.333,0.542-4.457,0.284-6.27-0.659c-1.184-0.612-2.216-1.44-3.066-2.46
		c-0.842-1.008-1.503-2.196-1.965-3.534c-0.457-1.324-0.69-2.726-0.69-4.161c0-1.278,0.202-2.585,0.596-3.877
		c0.398-1.303,0.997-2.482,1.778-3.511c0.796-1.039,1.8-1.895,2.983-2.54c1.749-0.952,4.044-1.27,6.497-0.733
		c0.774,0.171,1.529,0.447,2.241,0.818c0.72,0.374,1.397,0.889,2.019,1.525c0.518,0.531,0.974,1.164,1.356,1.886l3.936-2.709
		c-0.997-1.798-2.462-3.287-4.365-4.431C174.607,0.619,172.157,0,169.364,0c-2.374,0-4.518,0.448-6.368,1.33
		c-1.858,0.887-3.449,2.061-4.732,3.483c-1.284,1.429-2.276,3.073-2.945,4.885c-0.671,1.812-1.013,3.675-1.013,5.536
		c0,1.944,0.369,3.88,1.101,5.752c0.728,1.879,1.758,3.577,3.061,5.052c1.301,1.471,2.874,2.682,4.676,3.596
		c2.797,1.424,6.166,1.767,9.746,0.894c1.285-0.313,2.509-0.776,3.641-1.377c1.123-0.597,2.146-1.342,3.042-2.208
		c0.786-0.763,1.418-1.639,1.882-2.61l-4.215-2.424c-0.349,0.712-0.783,1.337-1.301,1.866c-0.623,0.637-1.308,1.161-2.034,1.565
		C173.177,25.743,172.397,26.042,171.59,26.227z"/>
	<polygon points="199.505,13.661 211.151,0.178 205.609,0.178 191.743,15.909 191.743,0.223 186.534,0.223 186.534,30.736 
		191.743,30.736 191.743,21.613 196.28,16.877 206.258,30.736 212,30.736 	"/>
	<path d="M132.746,18.937c1.649-0.695,2.971-1.849,3.932-3.426c0.974-1.593,1.465-3.386,1.465-5.326
		c0-1.204-0.243-2.423-0.721-3.621c-0.481-1.205-1.156-2.293-2.002-3.233c-0.831-0.938-1.852-1.708-3.029-2.293
		c-1.158-0.569-2.439-0.859-3.81-0.859H115.12v30.559h5.209V4.631h7.855c0.593,0,1.19,0.143,1.77,0.423
		c0.571,0.275,1.084,0.673,1.521,1.178c0.426,0.481,0.776,1.073,1.035,1.75c0.253,0.673,0.381,1.413,0.381,2.203
		c0,0.756-0.11,1.474-0.331,2.138c-0.223,0.669-0.529,1.26-0.914,1.753c-0.394,0.504-0.865,0.911-1.403,1.206
		c-0.554,0.3-1.157,0.453-1.796,0.453h-4.089l9.134,15.002h5.804l-7.034-11.593L132.746,18.937z"/>
</g>
<polygon points="42.649,22.068 42.536,21.722 35.583,0.188 32.804,0.187 32.696,0.187 32.591,0.187 29.812,0.188 22.725,22.138 
	15.637,0.188 12.858,0.187 12.754,0.187 12.645,0.187 9.867,0.188 0,30.741 5.887,30.741 12.754,9.487 19.617,30.741 19.946,30.741 
	25.504,30.741 25.831,30.741 32.696,9.487 39.429,30.326 39.563,30.741 45.504,30.745 "/>
</svg>
